ply
format ascii 1.0
comment VCGLIB generated
element vertex 121
property float x
property float y
property float z
property float nx
property float ny
property float nz
property float texture_u
property float texture_v
element face 90
property list uchar int vertex_indices
end_header
3.75 9.499999 1.2 -1 0 0 4.72441 37.40157
3.75 9.499999 2 -0.6982658 -0.698266 0.1576376 7.874016 37.40157
3.75 10 1.2 -0.7071068 0.7071068 0 4.72441 39.37008
3.75 10 2 -0.6982659 0.6982659 0.157637 7.874016 39.37008
3.75 9.499999 -0.4 -1 0 0 -1.574803 37.40157
3.75 9.499999 0.4 -1 0 0 1.574803 37.40157
3.75 10 -0.4 -0.7071068 0.7071068 0 -1.574803 39.37008
3.75 10 0.4 -0.7071068 0.7071068 0 1.574803 39.37008
4.25 10 1.2 0.7071068 0.7071068 0 -16.73228 4.724409
4.25 10 2 0.6982659 0.6982659 0.157637 -16.73228 7.874015
4.25 10 -2 0.6982659 0.698266 -0.157637 -16.73228 -7.874016
3.75 10 -2 -0.698266 0.6982659 -0.157637 -14.76378 -7.874016
4.25 10 -1.2 0.7071068 0.7071068 0 -16.73228 -4.72441
3.75 10 -1.2 -0.7071068 0.7071068 0 -14.76378 -4.72441
3.75 9.499999 -2 -0.6982657 -0.698266 -0.1576376 -7.874016 37.40157
3.75 9.499999 -1.2 -1 0 0 -4.72441 37.40157
4.25 10 -0.4 0.7071068 0.7071068 0 -16.73228 -1.574804
4.25 10 0.4 0.7071068 0.7071068 0 -16.73228 1.574803
4 8.903893 -1.2 0 0 0 -4.72441 35.0547
4 2.906489 -2 -1 0 0 -7.874016 11.44287
4 3.340638 -1.2 1 0 0 -4.72441 13.15212
4 1.60649 -1.443823e-14 -1 0 0 -5.684342e-14 6.324762
4 2.560638 -1.443823e-14 1 0 0 -5.684342e-14 10.08125
4 2.906489 2 -1 0 0 7.874016 11.44287
4 3.340638 1.2 -1 0 0 4.72441 13.15212
4 8.903893 1.2 0 0 0 4.72441 35.0547
4 9.499999 1.2 0 0 0 4.72441 37.40157
4 9.499999 2 0 -0.9925075 0.1221842 7.874016 37.40157
4 9.499999 -1.2 0 0 0 -4.72441 37.40157
4 9.499999 -2 0 -0.9925075 -0.1221842 -7.874016 37.40157
3.875 9.625 -2.5 -0.5033766 -0.5033758 -0.7022997 -15.25591 37.8937
3.875 9.875 -2.5 -0.5033765 0.5033765 -0.7022992 -15.25591 38.87795
4.125 9.625 -2.5 0.5033767 -0.5033758 -0.7022997 -16.24016 37.8937
4.125 9.875 -2.5 0.5033765 0.5033765 -0.7022992 -16.24016 38.87795
4.25 9.499999 -2 0.6982658 -0.698266 -0.1576376 7.874016 37.40157
4.25 9.499999 2 0.6982661 -0.6982657 0.1576375 -7.874016 37.40157
4.125 9.625 2.5 0.5033766 -0.5033758 0.7022997 16.24016 37.8937
4.125 9.875 2.5 0.5033765 0.5033765 0.7022992 16.24016 38.87795
3.875 9.625 2.5 -0.5033767 -0.5033758 0.7022997 15.25591 37.8937
3.875 9.875 2.5 -0.5033765 0.5033765 0.7022992 15.25591 38.87795
4 8.903893 0.4 0 0 0 1.574803 35.0547
4 9.499999 0.4 0 0 0 1.574803 37.40157
4 9.499999 -0.4 1 0 0 -1.574803 37.40157
4 8.903893 -0.4 1 0 0 -1.574803 35.0547
3.75 10 1.2 -0.7071068 0.7071068 0 -14.76378 4.724409
3.75 10 2 -0.6982659 0.6982659 0.157637 -14.76378 7.874015
3.75 10 -2 -0.698266 0.6982659 -0.157637 -7.874016 39.37008
3.75 10 -1.2 -0.7071068 0.7071068 0 -4.72441 39.37008
3.75 10 -0.4 -0.7071068 0.7071068 0 -14.76378 -1.574804
3.75 10 0.4 -0.7071068 0.7071068 0 -14.76378 1.574803
4.25 10 0.4 0.7071068 0.7071068 0 -16.73228 1.574803
3.75 10 0.4 -0.7071068 0.7071068 0 -14.76378 1.574803
4.25 10 1.2 0.7071068 0.7071068 0 -16.73228 4.724409
3.75 10 1.2 -0.7071068 0.7071068 0 -14.76378 4.724409
3.75 9.499999 0.4 -1 0 0 1.574803 37.40157
3.75 9.499999 1.2 -1 0 0 4.72441 37.40157
3.75 10 0.4 -0.7071068 0.7071068 0 1.574803 39.37008
3.75 10 1.2 -0.7071068 0.7071068 0 4.72441 39.37008
4.25 10 -2 0.6982659 0.698266 -0.157637 7.874016 39.37008
4.25 10 -1.2 0.7071068 0.7071068 0 4.72441 39.37008
4.25 10 -0.4 0.7071068 0.7071068 0 1.574803 39.37008
4.25 10 0.4 0.7071068 0.7071068 0 -1.574803 39.37008
4.25 10 1.2 0.7071068 0.7071068 0 -4.72441 39.37008
4.25 10 2 0.6982659 0.6982659 0.157637 -7.874016 39.37008
4.25 9.499999 2 0.6982661 -0.6982657 0.1576375 16.73228 7.874015
4 9.499999 2 0 -0.9925075 0.1221842 15.74803 7.874015
4.25 9.499999 -2 0.6982658 -0.698266 -0.1576376 16.73228 -7.874016
4 9.499999 -2 0 -0.9925075 -0.1221842 15.74803 -7.874016
3.75 9.499999 2 -0.6982658 -0.698266 0.1576376 14.76378 7.874015
3.75 9.499999 -2 -0.6982657 -0.698266 -0.1576376 14.76378 -7.874016
3.75 9.499999 1.2 -1 0 0 14.76378 4.724409
3.75 9.499999 0.4 -1 0 0 14.76378 1.574803
3.75 9.499999 -0.4 -1 0 0 14.76378 -1.574803
3.75 9.499999 -1.2 -1 0 0 14.76378 -4.72441
3.75 9.499999 -1.2 -1 0 0 -4.72441 37.40157
3.75 9.499999 -0.4 -1 0 0 -1.574803 37.40157
3.75 10 -1.2 -0.7071068 0.7071068 0 -4.72441 39.37008
3.75 10 -0.4 -0.7071068 0.7071068 0 -1.574803 39.37008
4.25 10 -1.2 0.7071068 0.7071068 0 -16.73228 -4.72441
3.75 10 -1.2 -0.7071068 0.7071068 0 -14.76378 -4.72441
4.25 10 -0.4 0.7071068 0.7071068 0 -16.73228 -1.574804
3.75 10 -0.4 -0.7071068 0.7071068 0 -14.76378 -1.574804
3.875 9.875 -2.5 -0.5033765 0.5033765 -0.7022992 -13.24875 38.87795
3.875 9.625 -2.5 -0.5033766 -0.5033758 -0.7022997 -13.24875 37.8937
3.75 10 -2 -0.698266 0.6982659 -0.157637 -11.21966 39.37008
3.75 9.499999 -2 -0.6982657 -0.698266 -0.1576376 -11.21966 37.40157
4.125 9.625 -2.5 0.5033767 -0.5033758 -0.7022997 5.60983 37.8937
4.125 9.875 -2.5 0.5033765 0.5033765 -0.7022992 5.60983 38.87795
4.25 9.499999 -2 0.6982658 -0.698266 -0.1576376 3.580743 37.40157
4.25 10 -2 0.6982659 0.698266 -0.157637 3.580743 39.37008
4.25 10 -2 0.6982659 0.698266 -0.157637 -16.73228 1.909729
4.125 9.875 -2.5 0.5033765 0.5033765 -0.7022992 -16.24016 -0.1193586
3.75 10 -2 -0.698266 0.6982659 -0.157637 -14.76378 1.909729
3.875 9.875 -2.5 -0.5033765 0.5033765 -0.7022992 -15.25591 -0.1193586
4.25 9.499999 -2 0.6982658 -0.698266 -0.1576376 -16.73228 16.71013
4 9.499999 -2 0 -0.9925075 -0.1221842 -15.74803 16.71013
4.125 9.625 -2.5 0.5033767 -0.5033758 -0.7022997 -16.24016 18.73922
3.875 9.625 -2.5 -0.5033766 -0.5033758 -0.7022997 -15.25591 18.73922
3.75 9.499999 -2 -0.6982657 -0.698266 -0.1576376 -14.76378 16.71013
4.25 9.499999 2 0.6982661 -0.6982657 0.1576375 16.73228 16.71013
4.125 9.625 2.5 0.5033766 -0.5033758 0.7022997 16.24016 18.73922
4 9.499999 2 0 -0.9925075 0.1221842 15.74803 16.71013
3.875 9.625 2.5 -0.5033767 -0.5033758 0.7022997 15.25591 18.73922
3.75 9.499999 2 -0.6982658 -0.698266 0.1576376 14.76378 16.71013
4.25 10 2 0.6982659 0.6982659 0.157637 16.73228 1.90973
3.75 10 2 -0.6982659 0.6982659 0.157637 14.76378 1.90973
4.125 9.875 2.5 0.5033765 0.5033765 0.7022992 16.24016 -0.1193576
3.875 9.875 2.5 -0.5033765 0.5033765 0.7022992 15.25591 -0.1193576
3.75 9.499999 2 -0.6982658 -0.698266 0.1576376 11.21966 37.40157
3.875 9.625 2.5 -0.5033767 -0.5033758 0.7022997 13.24875 37.8937
3.75 10 2 -0.6982659 0.6982659 0.157637 11.21966 39.37008
3.875 9.875 2.5 -0.5033765 0.5033765 0.7022992 13.24875 38.87795
4.25 9.499999 2 0.6982661 -0.6982657 0.1576375 -3.580743 37.40157
4.25 10 2 0.6982659 0.6982659 0.157637 -3.580743 39.37008
4.125 9.625 2.5 0.5033766 -0.5033758 0.7022997 -5.60983 37.8937
4.125 9.875 2.5 0.5033765 0.5033765 0.7022992 -5.60983 38.87795
4 2.560638 -1.443823e-14 1 0 0 -5.684342e-14 10.08125
4 3.340638 1.2 -1 0 0 4.72441 13.15212
4 8.903893 1.2 0 0 0 4.72441 35.0547
4 3.340638 -1.2 1 0 0 -4.72441 13.15212
4 8.903893 -1.2 0 0 0 -4.72441 35.0547
3 0 1 2 
3 3 2 1 
3 4 5 6 
3 7 6 5 
3 8 44 9 
3 45 9 44 
3 10 11 12 
3 13 12 11 
3 46 14 47 
3 15 47 14 
3 16 48 17 
3 49 17 48 
3 18 19 20 
3 21 20 19 
3 22 20 21 
3 23 22 21 
3 24 22 23 
3 25 24 23 
3 26 25 23 
3 27 26 23 
3 18 28 19 
3 29 19 28 
3 19 18 20 
3 20 21 19 
3 20 22 21 
3 22 23 21 
3 22 24 23 
3 24 25 23 
3 25 26 23 
3 26 27 23 
3 28 18 19 
3 19 29 28 
3 50 51 52 
3 53 52 51 
3 54 55 56 
3 57 56 55 
3 30 31 32 
3 33 32 31 
3 34 58 35 
3 59 35 58 
3 60 35 59 
3 61 35 60 
3 62 35 61 
3 63 35 62 
3 64 65 66 
3 67 66 65 
3 68 67 65 
3 69 67 68 
3 70 69 68 
3 71 69 70 
3 72 69 71 
3 73 69 72 
3 36 37 38 
3 39 38 37 
3 74 75 76 
3 77 76 75 
3 78 79 80 
3 81 80 79 
3 82 83 84 
3 85 84 83 
3 86 87 88 
3 89 88 87 
3 90 91 92 
3 93 92 91 
3 94 95 96 
3 97 96 95 
3 98 97 95 
3 99 100 101 
3 102 101 100 
3 103 101 102 
3 104 105 106 
3 107 106 105 
3 108 109 110 
3 111 110 109 
3 112 113 114 
3 115 114 113 
3 116 117 40 
3 118 40 117 
3 40 41 116 
3 41 42 116 
3 42 43 116 
3 116 43 119 
3 120 119 43 
3 117 116 40 
3 40 118 117 
3 41 40 116 
3 42 41 116 
3 43 42 116 
3 43 116 119 
3 119 120 43 
